<svg width="64" height="64" viewBox="0 0 64 64" fill="none" xmlns="http://www.w3.org/2000/svg">
<path d="M45.0701 3.85986H19.0701L21.8601 7.28986L22.0001 46.7899H36.6801V29.7899L39.2101 28.0699H48.5701V6.85986L45.0701 3.85986ZM35.0001 24.4599C33.3906 24.4579 31.8178 23.9788 30.4805 23.0832C29.1432 22.1875 28.1014 20.9155 27.4868 19.428C26.8723 17.9404 26.7125 16.3041 27.0277 14.7257C27.3429 13.1474 28.119 11.6979 29.2578 10.5605C30.3965 9.42309 31.847 8.64882 33.4257 8.33555C35.0044 8.02227 36.6406 8.18406 38.1274 8.80045C39.6142 9.41684 40.8849 10.4602 41.7789 11.7986C42.6729 13.137 43.1501 14.7103 43.1501 16.3199C43.1501 17.3897 42.9392 18.449 42.5295 19.4372C42.1198 20.4255 41.5193 21.3233 40.7624 22.0793C40.0055 22.8353 39.1069 23.4346 38.1182 23.8431C37.1294 24.2516 36.0699 24.4612 35.0001 24.4599V24.4599Z" fill="#ffffff" id="id_101"></path>
<path d="M3.57007 39.04L6.57007 41.71L9.95007 42.14L12.8401 39.3V26.02H4.00007L3.57007 39.04Z" fill="#ffffff" id="id_102"></path>
<path d="M57.42 27H49.42V8.52C49.4174 7.05854 48.8363 5.65755 47.8039 4.62321C46.7714 3.58887 45.3714 3.00528 43.91 3H17.58C16.1151 3 14.71 3.58125 13.6732 4.61616C12.6364 5.65108 12.0526 7.05509 12.05 8.52V8.52V25.22H4C3.73478 25.22 3.48043 25.3254 3.29289 25.5129C3.10536 25.7004 3 25.9548 3 26.22V37.56C3.00265 39.0249 3.58644 40.4289 4.62323 41.4638C5.66002 42.4988 7.06508 43.08 8.53 43.08H21.11V46.85C21.11 47.1152 21.2154 47.3696 21.4029 47.5571C21.5904 47.7446 21.8448 47.85 22.11 47.85H36.11V57.42C36.11 57.8944 36.2042 58.364 36.3872 58.8017C36.5702 59.2393 36.8384 59.6362 37.1762 59.9693C37.5139 60.3024 37.9145 60.565 38.3546 60.742C38.7948 60.9189 39.2657 61.0066 39.74 61H57.42C58.3695 61 59.2801 60.6228 59.9514 59.9514C60.6228 59.2801 61 58.3695 61 57.42V30.6C61.0026 30.1282 60.912 29.6605 60.7332 29.2239C60.5545 28.7872 60.2912 28.3902 59.9585 28.0556C59.6258 27.7211 59.2303 27.4556 58.7946 27.2744C58.359 27.0933 57.8918 27 57.42 27V27ZM5 37.56V27.22H12.05V37.56C11.9386 38.4094 11.522 39.1893 10.8781 39.7542C10.2341 40.3192 9.40667 40.6308 8.55 40.6308C7.69333 40.6308 6.86589 40.3192 6.22193 39.7542C5.57798 39.1893 5.16145 38.4094 5.05 37.56H5ZM12.78 41.08C13.6025 40.0916 14.052 38.8459 14.05 37.56V8.56C14.05 7.62379 14.4219 6.72592 15.0839 6.06391C15.7459 5.40191 16.6438 5.03 17.58 5.03C18.5162 5.03 19.4141 5.40191 20.0761 6.06391C20.7381 6.72592 21.11 7.62379 21.11 8.56V41.08H12.78ZM23.11 45.85V8.52C23.1109 7.2326 22.6576 5.98615 21.83 5H43.91C44.8428 5.00264 45.7365 5.37434 46.3961 6.0339C47.0557 6.69346 47.4274 7.58725 47.43 8.52V27H39.74C38.7905 27 37.8799 27.3772 37.2086 28.0486C36.5372 28.7199 36.16 29.6305 36.16 30.58V33.13H26.22C25.9548 33.13 25.7004 33.2354 25.5129 33.4229C25.3254 33.6104 25.22 33.8648 25.22 34.13C25.22 34.3952 25.3254 34.6496 25.5129 34.8371C25.7004 35.0246 25.9548 35.13 26.22 35.13H36.16V37.04H26.22C25.9548 37.04 25.7004 37.1454 25.5129 37.3329C25.3254 37.5204 25.22 37.7748 25.22 38.04C25.22 38.3052 25.3254 38.5596 25.5129 38.7471C25.7004 38.9346 25.9548 39.04 26.22 39.04H36.16V41H26.22C25.9548 41 25.7004 41.1054 25.5129 41.2929C25.3254 41.4804 25.22 41.7348 25.22 42C25.22 42.2652 25.3254 42.5196 25.5129 42.7071C25.7004 42.8946 25.9548 43 26.22 43H36.16V45.87L23.11 45.85ZM59 57.42C59 57.839 58.8335 58.2409 58.5372 58.5372C58.2409 58.8335 57.839 59 57.42 59H39.74C39.321 59 38.9191 58.8335 38.6228 58.5372C38.3265 58.2409 38.16 57.839 38.16 57.42V46.85V30.6C38.1574 30.3908 38.1963 30.1832 38.2745 29.9892C38.3527 29.7952 38.4687 29.6187 38.6156 29.4698C38.7626 29.321 38.9377 29.2028 39.1307 29.1222C39.3237 29.0415 39.5308 29 39.74 29H57.42C57.6292 29 57.8363 29.0415 58.0293 29.1222C58.2223 29.2028 58.3974 29.321 58.5444 29.4698C58.6913 29.6187 58.8073 29.7952 58.8855 29.9892C58.9637 30.1832 59.0026 30.3908 59 30.6V57.42Z" fill="#ffffff" id="id_103"></path>
<path d="M56.61 36.9199H40.54C40.2748 36.9199 40.0205 37.0253 39.8329 37.2128C39.6454 37.4004 39.54 37.6547 39.54 37.9199V41.2899C39.54 41.5551 39.6454 41.8095 39.8329 41.997C40.0205 42.1846 40.2748 42.2899 40.54 42.2899H56.61C56.8753 42.2899 57.1296 42.1846 57.3171 41.997C57.5047 41.8095 57.61 41.5551 57.61 41.2899V37.9199C57.61 37.6547 57.5047 37.4004 57.3171 37.2128C57.1296 37.0253 56.8753 36.9199 56.61 36.9199ZM55.61 40.2899H41.54V38.9199H55.61V40.2899Z" fill="#ffffff" id="id_104"></path>
<path d="M43.47 45.8198H40.54C40.2748 45.8198 40.0205 45.9252 39.8329 46.1127C39.6454 46.3003 39.54 46.5546 39.54 46.8198C39.54 47.085 39.6454 47.3394 39.8329 47.5269C40.0205 47.7145 40.2748 47.8198 40.54 47.8198H43.47C43.7353 47.8198 43.9896 47.7145 44.1771 47.5269C44.3647 47.3394 44.47 47.085 44.47 46.8198C44.47 46.5546 44.3647 46.3003 44.1771 46.1127C43.9896 45.9252 43.7353 45.8198 43.47 45.8198Z" fill="#ffffff" id="id_105"></path>
<path d="M50.0001 45.8198H47.1201C46.8549 45.8198 46.6005 45.9252 46.413 46.1127C46.2255 46.3003 46.1201 46.5546 46.1201 46.8198C46.1201 47.085 46.2255 47.3394 46.413 47.5269C46.6005 47.7145 46.8549 47.8198 47.1201 47.8198H50.0001C50.2653 47.8198 50.5197 47.7145 50.7072 47.5269C50.8948 47.3394 51.0001 47.085 51.0001 46.8198C51.0001 46.5546 50.8948 46.3003 50.7072 46.1127C50.5197 45.9252 50.2653 45.8198 50.0001 45.8198Z" fill="#ffffff" id="id_106"></path>
<path d="M56.6099 45.8198H53.6899C53.4247 45.8198 53.1704 45.9252 52.9828 46.1127C52.7953 46.3003 52.6899 46.5546 52.6899 46.8198C52.6899 47.085 52.7953 47.3394 52.9828 47.5269C53.1704 47.7145 53.4247 47.8198 53.6899 47.8198H56.6099C56.8752 47.8198 57.1295 47.7145 57.3171 47.5269C57.5046 47.3394 57.6099 47.085 57.6099 46.8198C57.6099 46.5546 57.5046 46.3003 57.3171 46.1127C57.1295 45.9252 56.8752 45.8198 56.6099 45.8198Z" fill="#ffffff" id="id_107"></path>
<path d="M43.47 49.8701H40.54C40.2748 49.8701 40.0205 49.9755 39.8329 50.163C39.6454 50.3505 39.54 50.6049 39.54 50.8701C39.54 51.1353 39.6454 51.3897 39.8329 51.5772C40.0205 51.7648 40.2748 51.8701 40.54 51.8701H43.47C43.7353 51.8701 43.9896 51.7648 44.1771 51.5772C44.3647 51.3897 44.47 51.1353 44.47 50.8701C44.47 50.6049 44.3647 50.3505 44.1771 50.163C43.9896 49.9755 43.7353 49.8701 43.47 49.8701Z" fill="#ffffff" id="id_108"></path>
<path d="M50.0001 49.8701H47.1201C46.8549 49.8701 46.6005 49.9755 46.413 50.163C46.2255 50.3505 46.1201 50.6049 46.1201 50.8701C46.1201 51.1353 46.2255 51.3897 46.413 51.5772C46.6005 51.7648 46.8549 51.8701 47.1201 51.8701H50.0001C50.2653 51.8701 50.5197 51.7648 50.7072 51.5772C50.8948 51.3897 51.0001 51.1353 51.0001 50.8701C51.0001 50.6049 50.8948 50.3505 50.7072 50.163C50.5197 49.9755 50.2653 49.8701 50.0001 49.8701Z" fill="#fcfcfc" id="id_109"></path>
<path d="M56.6099 49.8701H53.6899C53.4247 49.8701 53.1704 49.9755 52.9828 50.163C52.7953 50.3505 52.6899 50.6049 52.6899 50.8701C52.6899 51.1353 52.7953 51.3897 52.9828 51.5772C53.1704 51.7648 53.4247 51.8701 53.6899 51.8701H56.6099C56.8752 51.8701 57.1295 51.7648 57.3171 51.5772C57.5046 51.3897 57.6099 51.1353 57.6099 50.8701C57.6099 50.6049 57.5046 50.3505 57.3171 50.163C57.1295 49.9755 56.8752 49.8701 56.6099 49.8701Z" fill="#ba2243" id="id_110"></path>
<path d="M43.47 53.9302H40.54C40.2748 53.9302 40.0205 54.0355 39.8329 54.2231C39.6454 54.4106 39.54 54.665 39.54 54.9302C39.54 55.1954 39.6454 55.4497 39.8329 55.6373C40.0205 55.8248 40.2748 55.9302 40.54 55.9302H43.47C43.7353 55.9302 43.9896 55.8248 44.1771 55.6373C44.3647 55.4497 44.47 55.1954 44.47 54.9302C44.47 54.665 44.3647 54.4106 44.1771 54.2231C43.9896 54.0355 43.7353 53.9302 43.47 53.9302Z" fill="#c22547" id="id_111"></path>
<path d="M50.0001 53.9302H47.1201C46.8549 53.9302 46.6005 54.0355 46.413 54.2231C46.2255 54.4106 46.1201 54.665 46.1201 54.9302C46.1201 55.1954 46.2255 55.4497 46.413 55.6373C46.6005 55.8248 46.8549 55.9302 47.1201 55.9302H50.0001C50.2653 55.9302 50.5197 55.8248 50.7072 55.6373C50.8948 55.4497 51.0001 55.1954 51.0001 54.9302C51.0001 54.665 50.8948 54.4106 50.7072 54.2231C50.5197 54.0355 50.2653 53.9302 50.0001 53.9302Z" fill="#ba1e40" id="id_112"></path>
<path d="M56.6099 53.9302H53.6899C53.4247 53.9302 53.1704 54.0355 52.9828 54.2231C52.7953 54.4106 52.6899 54.665 52.6899 54.9302C52.6899 55.1954 52.7953 55.4497 52.9828 55.6373C53.1704 55.8248 53.4247 55.9302 53.6899 55.9302H56.6099C56.8752 55.9302 57.1295 55.8248 57.3171 55.6373C57.5046 55.4497 57.6099 55.1954 57.6099 54.9302C57.6099 54.665 57.5046 54.4106 57.3171 54.2231C57.1295 54.0355 56.8752 53.9302 56.6099 53.9302Z" fill="#d41b43" id="id_113"></path>
<path d="M56.61 32.5698H40.54C40.2748 32.5698 40.0205 32.6752 39.8329 32.8627C39.6454 33.0503 39.54 33.3046 39.54 33.5698C39.54 33.835 39.6454 34.0894 39.8329 34.2769C40.0205 34.4645 40.2748 34.5698 40.54 34.5698H56.61C56.8753 34.5698 57.1296 34.4645 57.3171 34.2769C57.5047 34.0894 57.61 33.835 57.61 33.5698C57.61 33.3046 57.5047 33.0503 57.3171 32.8627C57.1296 32.6752 56.8753 32.5698 56.61 32.5698Z" fill="#c92246" id="id_114"></path>
<path d="M34.5901 17.6H35.9401C36.036 17.596 36.1317 17.6109 36.2218 17.644C36.3119 17.677 36.3946 17.7274 36.4652 17.7924C36.5358 17.8575 36.5929 17.9358 36.6332 18.0229C36.6735 18.11 36.6962 18.2041 36.7001 18.3C36.7009 18.3903 36.6826 18.4798 36.6464 18.5625C36.6103 18.6452 36.557 18.7194 36.4901 18.78C36.3428 18.9228 36.1452 19.0019 35.9401 19H33.3801C33.1149 19 32.8605 19.1054 32.673 19.2929C32.4854 19.4805 32.3801 19.7348 32.3801 20C32.3801 20.2653 32.4854 20.5196 32.673 20.7071C32.8605 20.8947 33.1149 21 33.3801 21H34.2701V21.94C34.2701 22.2053 34.3754 22.4596 34.563 22.6471C34.7505 22.8347 35.0049 22.94 35.2701 22.94C35.5353 22.94 35.7896 22.8347 35.9772 22.6471C36.1647 22.4596 36.2701 22.2053 36.2701 21.94V21C36.8751 20.9357 37.4416 20.6719 37.8801 20.25C38.1383 20.0011 38.3439 19.703 38.4847 19.3732C38.6256 19.0434 38.6988 18.6887 38.7001 18.33C38.6962 17.9715 38.6217 17.6173 38.4808 17.2876C38.34 16.9578 38.1356 16.6591 37.8793 16.4084C37.623 16.1577 37.3198 15.9599 36.9871 15.8263C36.6544 15.6928 36.2986 15.6261 35.9401 15.63H34.5901C34.4942 15.6341 34.3985 15.6191 34.3083 15.5861C34.2182 15.5531 34.1355 15.5026 34.0649 15.4376C33.9943 15.3726 33.9373 15.2943 33.897 15.2072C33.8567 15.1201 33.8339 15.0259 33.8301 14.93C33.8316 14.8401 33.8509 14.7514 33.887 14.669C33.923 14.5866 33.9751 14.5122 34.0401 14.45C34.1873 14.3072 34.3849 14.2282 34.5901 14.23H37.1601C37.4253 14.23 37.6796 14.1247 37.8672 13.9371C38.0547 13.7496 38.1601 13.4953 38.1601 13.23C38.1601 12.9648 38.0547 12.7105 37.8672 12.5229C37.6796 12.3354 37.4253 12.23 37.1601 12.23H36.2701V11.29C36.2701 11.0248 36.1647 10.7705 35.9772 10.5829C35.7896 10.3954 35.5353 10.29 35.2701 10.29C35.0049 10.29 34.7505 10.3954 34.563 10.5829C34.3754 10.7705 34.2701 11.0248 34.2701 11.29V12.29C33.6615 12.3522 33.0912 12.6162 32.6501 13.04C32.3919 13.2889 32.1863 13.5871 32.0454 13.9169C31.9046 14.2467 31.8313 14.6014 31.8301 14.96C31.8536 15.6736 32.1556 16.3495 32.6716 16.843C33.1875 17.3365 33.8762 17.6083 34.5901 17.6V17.6Z" fill="#c4193e" id="id_115"></path>
<path d="M35.2699 25.68C37.0658 25.68 38.8213 25.1475 40.3145 24.1498C41.8077 23.152 42.9715 21.7339 43.6588 20.0748C44.346 18.4156 44.5258 16.59 44.1755 14.8286C43.8251 13.0673 42.9603 11.4494 41.6905 10.1795C40.4206 8.90963 38.8027 8.04485 37.0414 7.69449C35.28 7.34414 33.4543 7.52395 31.7952 8.2112C30.136 8.89844 28.7179 10.0622 27.7202 11.5554C26.7225 13.0486 26.1899 14.8042 26.1899 16.6C26.1926 19.0074 27.1501 21.3154 28.8523 23.0176C30.5546 24.7199 32.8626 25.6774 35.2699 25.68ZM35.2699 9.53002C36.6707 9.53002 38.0399 9.94551 39.2044 10.7239C40.3689 11.5023 41.2764 12.6087 41.812 13.9029C42.3475 15.1972 42.4872 16.6213 42.2132 17.9949C41.9392 19.3686 41.2639 20.6301 40.2727 21.6199C39.2816 22.6096 38.0191 23.2831 36.645 23.5552C35.271 23.8273 33.8471 23.6856 32.5536 23.1482C31.2601 22.6108 30.155 21.7018 29.3783 20.5362C28.6015 19.3706 28.188 18.0007 28.1899 16.6C28.1926 14.724 28.9397 12.9258 30.2672 11.6002C31.5946 10.2746 33.3939 9.53002 35.2699 9.53002V9.53002Z" fill="#e61c48" id="id_116"></path>
<path d="M26.22 31.2402H34.43C34.6952 31.2402 34.9495 31.1349 35.1371 30.9473C35.3246 30.7598 35.43 30.5055 35.43 30.2402C35.43 29.975 35.3246 29.7207 35.1371 29.5331C34.9495 29.3456 34.6952 29.2402 34.43 29.2402H26.22C25.9548 29.2402 25.7004 29.3456 25.5129 29.5331C25.3253 29.7207 25.22 29.975 25.22 30.2402C25.22 30.5055 25.3253 30.7598 25.5129 30.9473C25.7004 31.1349 25.9548 31.2402 26.22 31.2402Z" fill="#ba0b31" id="id_117"></path>
</svg>