<svg xmlns="http://www.w3.org/2000/svg" xml:space="preserve" width="1.70666in" height="1.70666in" version="1.1" style="shape-rendering:geometricPrecision; text-rendering:geometricPrecision; image-rendering:optimizeQuality; fill-rule:evenodd; clip-rule:evenodd" viewBox="0 0 1707 1707" xmlns:xlink="http://www.w3.org/1999/xlink">
 <defs>
  <style type="text/css">
   
    .fil9 {fill:#1AA1FF}
    .fil7 {fill:#58535A}
    .fil15 {fill:url(#id0)}
    .fil4 {fill:url(#id1)}
    .fil0 {fill:url(#id2)}
    .fil2 {fill:url(#id3)}
    .fil16 {fill:url(#id4)}
    .fil8 {fill:url(#id5)}
    .fil14 {fill:url(#id6)}
    .fil17 {fill:url(#id7)}
    .fil10 {fill:url(#id8)}
    .fil3 {fill:url(#id9)}
    .fil1 {fill:url(#id10)}
    .fil11 {fill:url(#id11)}
    .fil12 {fill:url(#id12)}
    .fil6 {fill:url(#id13)}
    .fil5 {fill:url(#id14)}
    .fil13 {fill:url(#id15)}
   
  </style>
  <linearGradient id="id0" gradientUnits="userSpaceOnUse" x1="1352.49" y1="1554.19" x2="1486.07" y2="1554.19">
   <stop offset="0" style="stop-opacity:1; stop-color:#E6E6E6" id="id_121"></stop>
   <stop offset="1" style="stop-opacity:1; stop-color:#CCCCCC" id="id_122"></stop>
  </linearGradient>
  <linearGradient id="id1" gradientUnits="userSpaceOnUse" x1="595.925" y1="959.079" x2="849.898" y2="959.079">
   <stop offset="0" style="stop-opacity:1; stop-color:yellow" id="id_123"></stop>
   <stop offset="1" style="stop-opacity:1; stop-color:#FFCC00" id="id_124"></stop>
  </linearGradient>
  <linearGradient id="id2" gradientUnits="userSpaceOnUse" x1="58.4843" y1="594.358" x2="1212.58" y2="594.358">
   <stop offset="0" style="stop-opacity:1; stop-color:#A36F4B" id="id_125"></stop>
   <stop offset="1" style="stop-opacity: 1; stop-color: rgb(86, 171, 50);" id="id_126"></stop>
  </linearGradient>
  <linearGradient id="id3" gradientUnits="userSpaceOnUse" x1="208.732" y1="526.268" x2="1062.62" y2="526.268">
   <stop offset="0" style="stop-opacity:1; stop-color:red" id="id_127"></stop>
   <stop offset="1" style="stop-opacity:1; stop-color:#990000" id="id_128"></stop>
  </linearGradient>
  <linearGradient id="id4" gradientUnits="userSpaceOnUse" xlink:href="#id2" x1="897.106" y1="1093.23" x2="1208.83" y2="1093.23">
  </linearGradient>
  <linearGradient id="id5" gradientUnits="userSpaceOnUse" xlink:href="#id0" x1="370.949" y1="1211.65" x2="755.465" y2="1211.65">
  </linearGradient>
  <linearGradient id="id6" gradientUnits="userSpaceOnUse" xlink:href="#id0" x1="1170.14" y1="997.933" x2="1346.24" y2="997.933">
  </linearGradient>
  <linearGradient id="id7" gradientUnits="userSpaceOnUse" x1="991.736" y1="1018.82" x2="1114.2" y2="1018.82">
   <stop offset="0" style="stop-opacity:1; stop-color:#8E4D21" id="id_129"></stop>
   <stop offset="1" style="stop-opacity:1; stop-color:#663300" id="id_130"></stop>
  </linearGradient>
  <linearGradient id="id8" gradientUnits="userSpaceOnUse" xlink:href="#id3" x1="811.22" y1="1483.36" x2="1647.61" y2="1483.36">
  </linearGradient>
  <linearGradient id="id9" gradientUnits="userSpaceOnUse" xlink:href="#id0" x1="481.24" y1="325.787" x2="790.154" y2="325.787">
  </linearGradient>
  <linearGradient id="id10" gradientUnits="userSpaceOnUse" x1="291.039" y1="873.902" x2="980.016" y2="873.902">
   <stop offset="0" style="stop-opacity:1; stop-color:#E6BC86" id="id_131"></stop>
   <stop offset="1" style="stop-opacity:1; stop-color:#F3CE96" id="id_132"></stop>
  </linearGradient>
  <linearGradient id="id11" gradientUnits="userSpaceOnUse" xlink:href="#id0" x1="555.626" y1="1554.19" x2="689.205" y2="1554.19">
  </linearGradient>
  <linearGradient id="id12" gradientUnits="userSpaceOnUse" xlink:href="#id0" x1="1170.15" y1="1188.55" x2="1561.71" y2="1188.55">
  </linearGradient>
  <linearGradient id="id13" gradientUnits="userSpaceOnUse" xlink:href="#id1" x1="370.949" y1="1430.45" x2="495.913" y2="1430.45">
  </linearGradient>
  <linearGradient id="id14" gradientUnits="userSpaceOnUse" xlink:href="#id3" x1="370.949" y1="1264.67" x2="849.894" y2="1264.67">
  </linearGradient>
  <linearGradient id="id15" gradientUnits="userSpaceOnUse" xlink:href="#id0" x1="1170.15" y1="1093.23" x2="1451.53" y2="1093.23">
  </linearGradient>
 </defs>
 <g id="Layer_x0020_1">
  <metadata id="CorelCorpID_0Corel-Layer"></metadata>
  <path class="fil0" d="M1189 1189l-1107 0c-13,0 -24,-10 -24,-24l0 -745c0,-8 4,-15 10,-19l556 -397c8,-6 19,-6 28,0l551 397c6,5 10,12 10,20l0 744c0,14 -11,24 -24,24z" id="id_101"></path>
  <path class="fil1" d="M980 1189l-689 0 0 -607c0,-13 11,-24 24,-24l641 0c13,0 24,11 24,24l0 607z" id="id_102"></path>
  <path class="fil2" d="M1039 606l-806 0c-13,0 -24,-10 -24,-24l0 -112c0,-13 11,-24 24,-24l806 0c13,0 24,11 24,24l0 112c0,14 -11,24 -24,24z" id="id_103"></path>
  <path class="fil3" d="M764 308l-256 0c-15,0 -27,-12 -27,-27 0,-14 12,-26 27,-26l256 0c14,0 26,12 26,26 0,15 -12,27 -26,27zm0 89l-256 0c-15,0 -27,-12 -27,-27 0,-14 12,-26 27,-26l256 0c14,0 26,12 26,26 0,15 -12,27 -26,27z" id="id_104"></path>
  <path class="fil4" d="M615 1021l216 0c10,0 19,-9 19,-19l0 -86c0,-10 -9,-19 -19,-19l-173 0c-34,0 -62,28 -62,62l0 43c0,10 9,19 19,19z" id="id_105"></path>
  <path class="fil5" d="M390 1547c125,0 232,0 361,0l80 0c10,0 19,-9 19,-19l0 -526c0,-11 -9,-20 -19,-20l-265 0c-7,0 -13,4 -17,10l-176 322 128 -233 235 0c11,0 19,9 19,19l0 223c0,10 -8,19 -19,19l-365 0 0 186c0,10 9,19 19,19z" id="id_106"></path>
  <path class="fil6" d="M371 1378l0 104 73 0c29,0 52,-23 52,-52l0 -26c0,-14 -12,-26 -26,-26l-99 0z" id="id_107"></path>
  <path class="fil7" d="M507 1069l-134 245 128 -233 235 0c11,0 19,9 19,19l0 223c0,10 -8,19 -19,19l-365 0 0 13 365 0c18,0 32,-15 32,-32l0 -223c0,-17 -14,-31 -32,-31l-229 0z" id="id_108"></path>
  <path class="fil8" d="M501 1081l-128 233c-1,2 -2,6 -2,9l0 19 365 0c11,0 19,-9 19,-19l0 -223c0,-10 -8,-19 -19,-19l-235 0z" id="id_109"></path>
  <path class="fil9" d="M831 1547c243,0 478,0 717,0l80 0c11,0 20,-9 20,-19l0 -699c0,-56 -46,-101 -101,-101l-635 0c-56,0 -101,45 -101,101l0 699c0,10 9,19 20,19z" id="id_110" style="fill: rgb(219, 79, 165);"></path>
  <path class="fil10" d="M1629 1547c10,0 19,-9 19,-19l0 -108 -837 0 0 127 818 0z" id="id_111"></path>
  <path class="fil7" d="M622 1705c84,0 151,-68 151,-151 0,-83 -67,-151 -151,-151 -83,0 -150,68 -150,151 0,83 67,151 150,151z" id="id_112"></path>
  <path class="fil11" d="M622 1621c37,0 67,-30 67,-67 0,-37 -30,-67 -67,-67 -36,0 -66,30 -66,67 0,37 30,67 66,67z" id="id_113"></path>
  <path class="fil12" d="M1189 1208l353 0c11,0 20,-9 20,-19 0,-11 -9,-20 -20,-20l-353 0c-10,0 -19,9 -19,20 0,10 9,19 19,19z" id="id_114"></path>
  <path class="fil13" d="M1189 1113l243 0c11,0 20,-9 20,-20 0,-10 -9,-19 -20,-19l-243 0c-10,0 -19,9 -19,19 0,11 9,20 19,20z" id="id_115"></path>
  <path class="fil14" d="M1189 1017l138 0c11,0 19,-8 19,-19 0,-11 -8,-19 -19,-19l-138 0c-10,0 -19,8 -19,19 0,11 9,19 19,19z" id="id_116"></path>
  <path class="fil7" d="M1419 1705c83,0 151,-68 151,-151 0,-83 -68,-151 -151,-151 -83,0 -150,68 -150,151 0,83 67,151 150,151z" id="id_117"></path>
  <path class="fil15" d="M1419 1621c37,0 67,-30 67,-67 0,-37 -30,-67 -67,-67 -37,0 -67,30 -67,67 0,37 30,67 67,67z" id="id_118"></path>
  <path class="fil16" d="M916 1238l273 0c11,0 20,-9 20,-20l0 -250c0,-10 -9,-19 -20,-19l-273 0c-10,0 -19,9 -19,19l0 250c0,11 9,20 19,20z" id="id_119"></path>
  <path class="fil17" d="M1114 949l-122 0 0 120c0,8 4,14 10,17 6,4 14,3 20,-1l32 -21 29 21c4,3 8,4 12,4 3,0 6,-1 9,-2 6,-4 10,-10 10,-18l0 -120z" id="id_120"></path>
 </g>
</svg>