<svg width="64" height="64" viewBox="0 0 64 64" fill="none" xmlns="http://www.w3.org/2000/svg">
<path d="M45.84 10.91H7.22C6.10079 10.91 5.02741 11.3546 4.23601 12.146C3.44461 12.9374 3 14.0108 3 15.13V40.87C3 41.9892 3.44461 43.0626 4.23601 43.854C5.02741 44.6454 6.10079 45.09 7.22 45.09H14.94C15.2052 45.09 15.4596 44.9846 15.6471 44.7971C15.8346 44.6096 15.94 44.3552 15.94 44.09H49.07V20.81C49.3352 20.81 49.5896 20.7046 49.7771 20.5171C49.9646 20.3296 50.07 20.0752 50.07 19.81V15.13C50.07 14.575 49.9605 14.0254 49.7478 13.5127C49.5351 13.0001 49.2234 12.5344 48.8305 12.1425C48.4375 11.7505 47.9711 11.4398 47.458 11.2283C46.9448 11.0169 46.395 10.9087 45.84 10.91V10.91Z" fill="#ffffff" id="id_101"></path>
<path d="M49.06 18.78H4C3.73478 18.78 3.48043 18.8853 3.29289 19.0729C3.10536 19.2604 3 19.5148 3 19.78V24.09C3 24.3552 3.10536 24.6095 3.29289 24.7971C3.48043 24.9846 3.73478 25.09 4 25.09H14.94C15.1857 25.0917 15.4234 25.003 15.6079 24.8407C15.7923 24.6784 15.9105 24.4539 15.94 24.21H25.38V20.81H49.08C49.3452 20.81 49.5996 20.7046 49.7871 20.5171C49.9746 20.3295 50.08 20.0752 50.08 19.81C50.08 19.5448 49.9746 19.2904 49.7871 19.1029C49.5996 18.9153 49.3452 18.81 49.08 18.81L49.06 18.78Z" fill="#d4487c" id="id_102"></path>
<path d="M55.9999 18.82H18.9399C16.1785 18.82 13.9399 21.0586 13.9399 23.82V48C13.9399 50.7614 16.1785 53 18.9399 53H55.9999C58.7614 53 60.9999 50.7614 60.9999 48V23.82C60.9999 21.0586 58.7614 18.82 55.9999 18.82Z" fill="#f7f7f7" id="id_103"></path>
<path d="M59.9999 26.69H14.9399C14.3877 26.69 13.9399 27.1377 13.9399 27.69V32C13.9399 32.5523 14.3877 33 14.9399 33H59.9999C60.5522 33 60.9999 32.5523 60.9999 32V27.69C60.9999 27.1377 60.5522 26.69 59.9999 26.69Z" fill="#c23166" id="id_104"></path>
<path d="M50.11 41.18C49.5114 41.1815 48.9218 41.3254 48.39 41.6C47.8855 41.3425 47.3292 41.2026 46.763 41.1908C46.1967 41.1791 45.6351 41.2957 45.1204 41.5321C44.6056 41.7684 44.1511 42.1182 43.791 42.5554C43.4308 42.9925 43.1743 43.5055 43.0408 44.0559C42.9072 44.6064 42.9001 45.1799 43.02 45.7335C43.1398 46.287 43.3835 46.8063 43.7327 47.2522C44.0819 47.6981 44.5276 48.0591 45.0363 48.3081C45.5451 48.5572 46.1036 48.6877 46.67 48.69C47.2699 48.6902 47.8607 48.5425 48.39 48.26C48.9192 48.5425 49.51 48.6902 50.11 48.69C51.0723 48.6403 51.9789 48.223 52.6425 47.5243C53.3061 46.8255 53.6761 45.8987 53.6761 44.935C53.6761 43.9713 53.3061 43.0445 52.6425 42.3457C51.9789 41.647 51.0723 41.2297 50.11 41.18V41.18Z" fill="#bd2d62" id="id_105"></path>
</svg>