<svg xmlns="http://www.w3.org/2000/svg" xml:space="preserve" width="512px" height="512px" style="shape-rendering:geometricPrecision; text-rendering:geometricPrecision; image-rendering:optimizeQuality; fill-rule:evenodd; clip-rule:evenodd" viewBox="0 0 512 512" xmlns:xlink="http://www.w3.org/1999/xlink">
<defs>
<style type="text/css">
   
    .fil0 {fill:#60C3D8}
    .fil1 {fill:#C7C7C6}
   
  </style>
</defs>
<g id="Layer_x0020_1">
<metadata id="CorelCorpID_0Corel-Layer"></metadata>
<g id="_178852568">
<path id="_178850672" class="fil0" d="M478.109 465.216l-188.616 0 3.3945 -3.36379c8.40475,-8.32798 8.40593,-21.7217 0.139371,-30.1477l-0.316536 -0.322442 3.21851 0c11.8867,0 21.4867,-9.60121 21.4867,-21.4867l0 -64.4695c0,-11.85 -9.54334,-21.4288 -21.3804,-21.4867l2.72127 -2.72127c3.83978,-3.83978 6.18073,-9.46066 6.18073,-14.8902 0,-5.42954 -2.34095,-11.0516 -6.18073,-14.8902l-45.3368 -45.3368c-8.37404,-8.37522 -21.8209,-8.37522 -30.1962,-0.00118111l-0.226772 0.226772 0 -3.22088c0,-11.8855 -9.60121,-21.4867 -21.4867,-21.4867l-64.4695 0.00118111c-11.8855,0 -21.4867,9.60121 -21.4867,21.4867l0 0.724018 -2.72127 -2.72127c-0.244489,-0.244489 -0.493702,-0.481891 -0.74764,-0.712207l0 -232.712c0,-4.15867 3.32836,-7.48703 7.48703,-7.48703l358.537 0c4.15986,0 7.48703,3.32836 7.48703,7.48703l0 450.46c0,4.15986 -3.32718,7.07128 -7.48703,7.07128zm-49.0809 -60.7266l-85.6266 0c-4.15867,0 -7.48703,-3.32836 -7.48703,-7.48703 0,-4.15986 3.32836,-7.48703 7.48703,-7.48703l85.6266 0.00118111c4.15986,0 7.48703,3.32718 7.48703,7.48703 0,4.15867 -3.32718,7.48585 -7.48703,7.48585zm0 -47.0009l-85.6266 0c-4.15867,0 -7.48703,-3.32718 -7.48703,-7.48703 0,-4.15867 3.32836,-7.48703 7.48703,-7.48703l85.6266 0c4.15986,0 7.48703,3.32836 7.48703,7.48703 0,4.15986 -3.32718,7.48703 -7.48703,7.48703zm0 -47.0009l-89.7676 0c-4.15986,0 -7.48703,-3.32718 -7.48703,-7.48703 0,-4.15867 3.32718,-7.48585 7.48703,-7.48585l89.7676 0c4.15986,0 7.48703,3.32718 7.48703,7.48585 0,4.15986 -3.32718,7.48703 -7.48703,7.48703zm0 -46.9998l-123.892 0c-4.15986,0 -7.48703,-3.32836 -7.48703,-7.48703 0,-4.15986 3.32718,-7.48703 7.48703,-7.48703l123.892 0c4.15986,0 7.48703,3.32718 7.48703,7.48703 0,4.15867 -3.32718,7.48703 -7.48703,7.48703zm0 -47.0021l-259.96 0c-4.15867,0 -7.48703,-3.32836 -7.48703,-7.48703 0,-4.15867 3.32836,-7.48703 7.48703,-7.48703l259.96 0c4.15986,0 7.48703,3.32836 7.48703,7.48703 0,4.15867 -3.32718,7.48703 -7.48703,7.48703zm0 -46.584l-259.96 0c-4.15867,0 -7.48703,-3.32836 -7.48703,-7.48703 0,-4.15986 3.32836,-7.48703 7.48703,-7.48703l259.96 0c4.15986,0 7.48703,3.32718 7.48703,7.48703 0,4.15867 -3.32718,7.48703 -7.48703,7.48703zm0 -47.0021l-259.96 0c-4.15867,0 -7.48703,-3.32718 -7.48703,-7.48703 0,-4.15867 3.32836,-7.48703 7.48703,-7.48703l259.96 0.00118111c4.15986,0 7.48703,3.32836 7.48703,7.48703 0,4.15986 -3.32718,7.48585 -7.48703,7.48585zm-62.3896 -47.0009l-135.596 0c-4.15986,0 -7.48703,-3.32718 -7.48703,-7.48585 0,-4.15986 3.32718,-7.07128 7.48703,-7.07128l135.596 0c4.15867,0 7.48703,3.32836 7.48703,7.07128 0,3.74174 -3.32836,7.48585 -7.48703,7.48585z" style="fill: rgb(168, 30, 163);"></path>
<path id="_178854488" class="fil1" d="M193.609 511.802l-64.4707 0c-4.15867,0 -7.48703,-3.32718 -7.48703,-7.48703l0 -33.6899c-0.831499,-0.41693 -1.66418,-0.831499 -2.49568,-1.24843l-21.6272 21.6284c-2.91143,2.91143 -7.48703,2.91143 -10.3985,0l-45.3379 -44.921c-1.24725,-1.24843 -2.07993,-3.32836 -2.07993,-4.99254 0,-1.663 0.831499,-3.74292 2.07993,-4.99135l24.1241 -24.1241c-0.415749,-0.831499 -0.831499,-1.66418 -0.831499,-2.49568l-31.1954 0.00118111c-4.15867,0 -7.48585,-3.32836 -7.48585,-7.48703l0 -64.0549c0,-4.15867 3.32718,-7.48703 7.48585,-7.48703l34.1068 0c0.41693,-0.830318 0.831499,-1.663 1.24843,-2.4945l-22.0442 -21.6284c-1.24843,-1.24725 -2.08111,-3.32836 -2.08111,-4.99135 0,-1.66418 0.831499,-3.74292 2.08111,-4.99254l45.3356 -45.3356c2.91143,-2.91261 7.48703,-2.91261 10.3985,0l24.1253 24.1241c0.831499,-0.415749 1.66418,-0.831499 2.4945,-0.831499l0 -31.1954c0,-4.15867 3.32836,-7.48703 7.48703,-7.48703l64.4695 -0.00118111c4.15986,0 7.48703,3.32836 7.48703,7.48703l0 34.1068c0.831499,0.41693 1.24843,0.831499 2.07993,0.831499l22.0453 -22.0442c2.91143,-2.91143 7.48703,-2.91143 10.3985,0l45.3368 45.3368c1.24725,1.24725 2.07993,3.32718 2.07993,4.99135 0,1.66418 -0.831499,3.74292 -2.07993,4.99135l-24.1253 24.1253c0.41693,0.831499 0.41693,1.663 0.831499,2.4945l30.3651 0c4.15867,0 7.48703,3.32836 7.48703,7.48703l0 64.4695c0,4.15986 -3.32836,7.48703 -7.48703,7.48703l-33.6922 0.00118111c-0.415749,0.831499 -0.830318,1.24843 -0.830318,2.08111l21.6272 22.0442c2.91143,2.91143 2.91143,7.48703 0,10.3985l-45.3356 44.9198c-1.24843,1.24843 -3.32836,2.07993 -4.99254,2.07993 0,0 0,0 0,0 -2.07993,0 -3.74292,-0.830318 -4.99135,-2.07993l-24.1241 -24.1241c-0.831499,0.415749 -1.66418,0.415749 -2.49568,0.831499l0 30.7784c-0.415749,4.16104 -3.74292,7.48821 -7.48585,7.48821zm-28.6997 -66.9663c-39.5139,0 -71.542,-32.0269 -71.542,-71.5408 0,-39.5139 32.0269,-71.542 71.542,-71.542 39.5127,0 71.5408,32.0269 71.5408,71.542 0,39.9308 -32.0281,71.5408 -71.5408,71.5408zm0 -128.107c-31.6123,0 -56.9836,25.7883 -56.9836,56.9836 0,31.1954 25.7883,56.9836 56.9836,56.9836 31.1954,0 56.9836,-25.3713 56.9836,-56.9836 0,-31.6111 -25.7883,-56.9836 -56.9836,-56.9836z" style="fill: rgb(222, 113, 218);"></path>
</g>
</g>
</svg>