<svg xmlns="http://www.w3.org/2000/svg" xml:space="preserve" width="512px" height="512px" style="shape-rendering:geometricPrecision; text-rendering:geometricPrecision; image-rendering:optimizeQuality; fill-rule:evenodd; clip-rule:evenodd" viewBox="0 0 512 512" xmlns:xlink="http://www.w3.org/1999/xlink">
<defs>
<style type="text/css">
   
    .fil0 {fill:#60C3D8}
    .fil1 {fill:#C7C7C6}
   
  </style>
</defs>
<g id="Layer_x0020_1">
<metadata id="CorelCorpID_0Corel-Layer"></metadata>
<path class="fil0" d="M248.09 452.374c-4.05638,0 -7.3012,-3.24482 -7.3012,-7.3012l0 -96.9435c0,-4.05638 3.24482,-7.3012 7.3012,-7.3012 4.05609,0 7.3012,3.24482 7.3012,7.3012l0 96.9435c-0.405638,4.05638 -3.65074,7.3012 -7.3012,7.3012z" id="id_101" style="fill: rgb(166, 45, 158);"></path>
<path class="fil0" d="M178.729 401.265l-50.2971 0c-4.05638,0 -7.3012,-3.24482 -7.3012,-7.3012 0,-4.05609 3.24482,-7.30091 7.3012,-7.30091l43.4015 0 0 -68.9559c0,-4.05638 3.24482,-7.3012 7.3012,-7.3012 4.05638,0 7.3012,3.24482 7.3012,7.3012l0 76.2568c-0.405638,4.05609 -3.65046,7.3012 -7.70684,7.3012z" id="id_102" style="fill: rgb(168, 45, 160);"></path>
<path class="fil0" d="M383.973 401.265l-50.2971 0c-4.05609,0 -7.3012,-3.24482 -7.3012,-7.3012l0 -76.2568c0,-4.05638 3.2451,-7.3012 7.3012,-7.3012 4.05638,0 7.3012,3.24482 7.3012,7.3012l0 68.9559 43.4015 0c4.05638,0 7.3012,3.24482 7.3012,7.30091 0,4.05638 -3.65046,7.3012 -7.70684,7.3012z" id="id_103" style="fill: rgb(171, 48, 163);"></path>
<path class="fil0" d="M98.0107 431.281c-20.6867,0 -37.317,-16.6303 -37.317,-37.317 0,-20.6867 16.6303,-37.317 37.317,-37.317 20.6867,0 37.317,16.6303 37.317,37.317 0,20.6867 -16.6303,37.317 -37.317,37.317z" id="id_104" style="fill: rgb(173, 48, 165);"></path>
<path class="fil0" d="M413.989 431.281c-20.6867,0 -37.317,-16.6303 -37.317,-37.317 0,-20.6867 16.6303,-37.317 37.317,-37.317 20.6867,0 37.317,16.6303 37.317,37.317 0.000283465,20.6867 -16.6303,37.317 -37.317,37.317z" id="id_105" style="fill: rgb(173, 50, 165);"></path>
<path class="fil0" d="M248.09 512c-20.281,0 -36.9116,-16.6303 -36.9116,-37.317 0,-20.281 16.6303,-36.9116 36.9116,-36.9116 20.6864,0 37.3167,16.6303 37.3167,36.9116 -0.405354,20.6867 -17.0357,37.317 -37.3167,37.317z" id="id_106" style="fill: rgb(179, 52, 171);"></path>
<path class="fil1" d="M450.795 217.703l-29.8525 -1.72205c-8.77266,-0.506268 -16.2057,-6.56901 -18.4042,-15.0565 -4.08841,-15.7864 -10.3714,-30.8217 -18.811,-44.7786 -4.64542,-7.68302 -3.71707,-17.3577 2.27027,-24.0293l20.1129 -22.4116 -24.6518 -24.6518 -22.4116 20.1132c-6.65235,5.96976 -16.278,6.89187 -23.9598,2.31165 -13.9439,-8.31402 -28.8695,-14.9525 -44.6695,-18.8082 -8.84976,-2.15915 -14.8056,-9.50854 -15.2416,-18.574l-1.42923 -29.7272 -35.2077 0 -1.72233 29.8525c-0.503717,8.73666 -6.52592,16.1459 -14.9882,18.3861 -15.8037,4.18394 -30.8988,10.6254 -44.983,18.9102 -7.68076,4.51814 -17.259,3.60227 -23.8929,-2.35106l-22.3671 -20.0735 -24.736 24.9735 20.1526 22.4558c5.97685,6.66 6.90151,16.3055 2.29493,23.9879 -8.37836,13.972 -14.8527,28.8887 -18.8084,44.7129 -2.19203,8.76756 -9.44532,14.6452 -18.4314,15.1634l-29.8525 1.72233 0 54.5746c0,11.2785 -9.10857,20.3871 -20.3871,20.3871 -11.2785,0 -20.3868,-9.10857 -20.3868,-20.3871l0 -73.8227c0,-10.8201 8.51669,-19.3586 19.2484,-19.9607l34.1705 -1.91594c3.13002,-9.73956 7.08406,-19.1778 11.8261,-28.2419l-22.9467 -25.4965c-7.25528,-8.06173 -6.76432,-20.0982 0.879307,-27.7418l52.3256 -52.3253c7.64362,-7.64391 19.6801,-8.13487 27.7418,-0.879307l25.577 23.0196c9.05046,-4.63635 18.5037,-8.59578 28.1551,-11.7899l1.92189 -34.2799c0.591591,-10.546 9.31776,-19.2484 19.961,-19.2484l73.4173 -0.000283465c10.7833,0 19.2555,8.45717 19.9534,19.1271l2.24901 34.3729c9.68088,3.19918 19.1639,7.16854 28.241,11.8185l25.5773 -23.0196c8.06202,-7.25556 20.0985,-6.7646 27.7421,0.879307l51.9197 51.9197c7.64362,7.64362 8.13458,19.6801 0.879307,27.7418l-22.9569 25.5076c4.70211,9.04167 8.64255,18.5321 11.7899,28.228l34.217 1.91877c10.546,0.591307 19.2484,9.31748 19.2484,19.9607l0 73.4173c0,11.435 -8.86677,20.7927 -20.3865,20.7927 -11.2785,0 -20.3871,-9.10857 -20.3871,-20.3871l0 -54.5749z" id="id_107" style="fill: rgb(227, 136, 221);"></path>
<path class="fil0" d="M256.203 355.43c-66.1164,0 -120.064,-53.5419 -120.064,-120.063 0,-66.5218 53.9478,-120.064 120.064,-120.064 66.1159,0 120.064,53.9476 120.064,120.064 0,66.1161 -53.9481,120.063 -120.064,120.063z" id="id_108" style="fill: rgb(176, 51, 168);"></path>
</g>
</svg>