<svg xmlns="http://www.w3.org/2000/svg" viewBox="0 0 64 64"><title>industry, factory, building, production, landscape, </title><g id="Flat"><polygon points="59 33 59 61 5 61 5 43 18.78 35.34 23 33 23 41 27.64 38.94 36.67 34.92 41 33 41 41 45.71 38.91 45.87 38.84 59 33" style="fill: rgb(255, 255, 255);" id="id_101"></polygon><polygon points="23 41 23 33 22 33.55 18.78 35.34 20 25 26 25 27.64 38.94 23 41" style="fill:#d6d7d8" id="id_102"></polygon><polygon points="41 41 41 33 36.67 34.92 37.62 23 38 19 44 19 44.38 23 45.71 38.91 41 41" style="fill:#e6e6e6" id="id_103"></polygon><polygon points="26.5 29 19.5 29 20 25 26 25 26.5 29" style="fill:#c1272d" id="id_104"></polygon><polygon points="44.38 23 37.62 23 38 19 44 19 44.38 23" style="fill:#c1272d" id="id_105"></polygon><rect x="25" y="51" width="14" height="10" style="fill: rgb(196, 28, 56);" id="id_106"></rect><rect x="31" y="51" width="2" height="10" style="fill:gray" id="id_107"></rect><rect x="8" y="50" width="2" height="2" style="fill:#4ec9f4" id="id_108"></rect><rect x="12" y="50" width="2" height="2" style="fill:#4ec9f4" id="id_109"></rect><rect x="16" y="50" width="2" height="2" style="fill:#4ec9f4" id="id_110"></rect><rect x="20" y="50" width="2" height="2" style="fill:#4ec9f4" id="id_111"></rect><rect x="42" y="50" width="2" height="2" style="fill:#4ec9f4" id="id_112"></rect><rect x="46" y="50" width="2" height="2" style="fill:#4ec9f4" id="id_113"></rect><rect x="50" y="50" width="2" height="2" style="fill:#4ec9f4" id="id_114"></rect><rect x="54" y="50" width="2" height="2" style="fill:#4ec9f4" id="id_115"></rect><path d="M14,9a2.969,2.969,0,0,0-1.019.19c0-.064.019-.125.019-.19A3,3,0,0,0,7,9c0,.065.015.126.019.19A2.969,2.969,0,0,0,6,9a3,3,0,0,0-3,3v1H17V12A3,3,0,0,0,14,9Z" style="fill: rgb(255, 255, 255);" id="id_116"></path><path d="M58.429,19.571a2.559,2.559,0,0,0-.874.163c0-.055.016-.107.016-.163a2.571,2.571,0,1,0-5.142,0c0,.056.012.108.016.163A2.548,2.548,0,0,0,49,22.143V23H61v-.857A2.572,2.572,0,0,0,58.429,19.571Z" style="fill: rgb(255, 255, 255);" id="id_117"></path><path d="M27,14a3,3,0,0,0-3,3,2,2,0,1,0,1.846,2.769A3,3,0,1,0,27,14Z" style="fill: rgb(255, 255, 255);" id="id_118"></path><path d="M50,4a4,4,0,0,0-4,4c0,.065.016.125.019.19A2.969,2.969,0,0,0,45,8a3,3,0,0,0-3,3,2,2,0,1,0,1.846,2.769,2.987,2.987,0,0,0,4.111-2.347A3.994,3.994,0,1,0,50,4Z" style="fill: rgb(255, 255, 255);" id="id_119"></path><rect x="2" y="60" width="60" height="2" style="fill: rgb(196, 28, 56);" id="id_120"></rect><polygon points="23 41 23 33 22 33.55 22 25 26 25 27.64 38.94 23 41" style="fill:#e6e6e6" id="id_121"></polygon><polygon points="26.5 29 22 29 22 25 26 25 26.5 29" style="fill:#d13742" id="id_122"></polygon></g></svg>