<svg width="512" height="512" viewBox="0 0 512 512" fill="none" xmlns="http://www.w3.org/2000/svg">
<path d="M280 392H264V448H280V392Z" fill="#c93a3d" id="id_101"></path>
<path d="M248 392H232V448H248V392Z" fill="#c23c3e" id="id_102"></path>
<path d="M192 373.766V376H320V373.766L256 352.433L192 373.766Z" fill="#c44143" id="id_103"></path>
<path d="M252.849 92.8027C253.913 93.2588 254.963 93.7347 256 94.2305C257.038 93.7344 258.088 93.2585 259.151 92.8027C260.591 92.187 261.818 91.1617 262.68 89.8544C263.542 88.547 264.001 87.0152 264 85.4492V72C264 69.8783 263.157 67.8434 261.657 66.3431C260.157 64.8429 258.122 64 256 64C253.878 64 251.843 64.8429 250.343 66.3431C248.843 67.8434 248 69.8783 248 72V85.4492C247.999 87.0153 248.458 88.5472 249.32 89.8545C250.182 91.1619 251.409 92.1871 252.849 92.8027V92.8027Z" fill="#de5254" id="id_104"></path>
<path d="M216 392H200V448H216V392Z" fill="#cc5456" id="id_105"></path>
<path d="M312 392H296V448H312V392Z" fill="#e33639" id="id_106"></path>
<path d="M227.313 224H240V304H272V224H284.687L256 195.313L227.313 224Z" fill="#c24244" id="id_107"></path>
<path d="M480 224V200C479.998 197.879 479.154 195.846 477.654 194.346C476.154 192.846 474.121 192.003 472 192H347.967C341.537 201.195 333.772 209.38 324.928 216.284L315.073 203.679C330.831 191.378 342.355 174.465 348.039 155.299C353.722 136.134 353.281 115.672 346.777 96.7694C340.272 77.8667 328.029 61.4661 311.756 49.856C295.482 38.2458 275.991 32.0054 256 32.0054C236.01 32.0054 216.518 38.2458 200.245 49.856C183.971 61.4661 171.728 77.8667 165.224 96.7694C158.719 115.672 158.278 136.134 163.962 155.299C169.645 174.465 181.17 191.378 196.927 203.679L187.073 216.284C178.228 209.38 170.463 201.195 164.034 192H40C37.879 192.003 35.8456 192.846 34.3458 194.346C32.8461 195.846 32.0024 197.879 32 200V224H176V240H32V272H208V288H32V472C32.0024 474.121 32.8461 476.155 34.3458 477.654C35.8456 479.154 37.879 479.998 40 480H472C474.121 479.998 476.154 479.154 477.654 477.654C479.154 476.155 479.998 474.121 480 472V288H304V272H480V240H336V224H480ZM208 170.376C207.99 157.534 210.914 144.859 216.55 133.32C222.185 121.78 230.383 111.68 240.517 103.792C237.846 101.54 235.7 98.7313 234.229 95.5628C232.758 92.3943 231.997 88.9426 232 85.4493V72.0001C232 65.6349 234.529 59.5304 239.029 55.0295C243.53 50.5286 249.635 48.0001 256 48.0001C262.365 48.0001 268.47 50.5286 272.971 55.0295C277.471 59.5304 280 65.6349 280 72.0001V85.4493C280.003 88.9426 279.242 92.3943 277.771 95.5627C276.3 98.7312 274.154 101.54 271.483 103.792C281.617 111.68 289.815 121.78 295.45 133.32C301.086 144.859 304.01 157.534 304 170.376V184H288V170.376C288.009 158.802 285.077 147.416 279.48 137.286C273.883 127.155 265.803 118.613 256 112.461C246.197 118.613 238.117 127.155 232.52 137.286C226.923 147.416 223.991 158.802 224 170.376V184H208V170.376ZM160 464H72V455C71.9956 451.023 70.4138 447.21 67.6017 444.398C64.7896 441.586 60.9769 440.005 57 440H48V328H57C60.9769 327.996 64.7896 326.414 67.6017 323.602C70.4138 320.79 71.9956 316.977 72 313V304H208V320H87.2031C85.8821 325.646 83.0095 330.81 78.9096 334.91C74.8097 339.01 69.6456 341.882 64 343.203V424.797C69.6456 426.118 74.8097 428.991 78.9096 433.09C83.0095 437.19 85.8821 442.354 87.2031 448H160V464ZM160 392H128V376H160V392ZM336 392H328V448H336V464H176V448H184V392H176V362.234L256 335.567L336 362.234V392ZM440 304V313C440.004 316.977 441.586 320.79 444.398 323.602C447.21 326.414 451.023 327.996 455 328H464V440H456C451.758 440.005 447.691 441.692 444.692 444.692C441.692 447.691 440.005 451.758 440 456V464H352V448H425.012C426.453 442.47 429.342 437.424 433.383 433.383C437.424 429.343 442.47 426.453 448 425.013V343.203C442.354 341.882 437.19 339.01 433.09 334.91C428.99 330.81 426.118 325.646 424.797 320H304V304H440ZM352 392V376H384V392H352ZM288 240V320H224V240H188.687L256 172.687L323.313 240H288Z" fill="#ffffff" id="id_108"></path>
</svg>