<svg id="Flat" height="512" viewBox="0 0 512 512" width="512" xmlns="http://www.w3.org/2000/svg"><g><g><circle cx="256" cy="256" fill="#ffffff" r="184" id="id_101"></circle><circle cx="256" cy="256" fill="#fcf7f8" r="152" id="id_102"></circle><path d="m264 233.371v-97.371h-16v97.371a24.12 24.12 0 0 0 -14.629 14.629h-65.371v16h65.371a24 24 0 1 0 30.629-30.629zm-8 30.629a8 8 0 1 1 8-8 8.009 8.009 0 0 1 -8 8z" fill="#d94e65" id="id_103"></path></g><g><path d="m198 24h-164a10 10 0 0 0 -10 10v124a10 10 0 0 0 10 10h131.333l42.667 32v-166a10 10 0 0 0 -10-10z" fill="#e0415c" id="id_104"></path><g fill="#fffdfa"><path d="m64 128h104v-57.052l-47.562 31.708a8 8 0 0 1 -8.876 0l-47.562-31.708z" id="id_105"></path><path d="m149.578 64h-67.156l33.578 22.385z" id="id_106"></path></g></g><g><path d="m314 488h164a10 10 0 0 0 10-10v-124a10 10 0 0 0 -10-10h-131.333l-42.667-32v166a10 10 0 0 0 10 10z" fill="#d43e57" id="id_107"></path><path d="m416 376v16h-80v64h120v-80z" fill="#fffdfa" id="id_108"></path><path d="m384 416h24v16h-24z" fill="#cf3c55" id="id_109"></path></g><g><path d="m338 48h140a10 10 0 0 1 10 10v100a10 10 0 0 1 -10 10h-110l-40 32v-142a10 10 0 0 1 10-10z" fill="#e33f5b" id="id_110"></path><path d="m405.656 136a8 8 0 0 1 -5.656-2.343l-24-24 11.313-11.314 17.806 17.8 34.392-41.269 12.289 10.247-40 48a8 8 0 0 1 -5.784 2.871c-.116.008-.239.008-.36.008z" fill="#fffdfa" id="id_111"></path></g><g><path d="m174 463h-140a10 10 0 0 1 -10-10v-108a10 10 0 0 1 10-10h110l40-32v150a10 10 0 0 1 -10 10z" fill="#e6435e" id="id_112"></path><path d="m144 375-24 8v2a10 10 0 0 0 -10-10h-44a10 10 0 0 0 -10 10v28a10 10 0 0 0 10 10h44a10 10 0 0 0 10-10v2l24 8h8v-48z" fill="#fffdfa" id="id_113"></path></g></g></svg>