<svg xmlns="http://www.w3.org/2000/svg" xml:space="preserve" width="1.70666in" height="1.70666in" version="1.1" style="shape-rendering:geometricPrecision; text-rendering:geometricPrecision; image-rendering:optimizeQuality; fill-rule:evenodd; clip-rule:evenodd" viewBox="0 0 1706.66 1706.66" xmlns:xlink="http://www.w3.org/1999/xlink" xmlns:xodm="http://www.corel.com/coreldraw/odm/2003">
<defs>
<style type="text/css">
   
    .fil1 {fill:url(#id0)}
    .fil0 {fill:url(#id1)}
    .fil3 {fill:url(#id2)}
    .fil2 {fill:url(#id3)}
   
  </style>
<linearGradient id="id0" gradientUnits="userSpaceOnUse" x1="511.11" y1="123.72" x2="1195.54" y2="123.72">
<stop offset="0" style="stop-opacity:1; stop-color:#CC3300" id="id_117"></stop>
<stop offset="1" style="stop-opacity: 1; stop-color: rgb(204, 70, 88);" id="id_118"></stop>
</linearGradient>
<linearGradient id="id1" gradientUnits="userSpaceOnUse" x1="240.75" y1="905.04" x2="1465.93" y2="905.04">
<stop offset="0" style="stop-opacity: 1; stop-color: rgb(255, 252, 252);" id="id_119"></stop>
<stop offset="1" style="stop-opacity: 1; stop-color: rgb(255, 255, 255);" id="id_120"></stop>
</linearGradient>
<linearGradient id="id2" gradientUnits="objectBoundingBox" xlink:href="#id0" x1="0.00264424%" y1="50%" x2="100.003%" y2="50%">
</linearGradient>
<linearGradient id="id3" gradientUnits="userSpaceOnUse" xlink:href="#id0" x1="436.3" y1="500.81" x2="585.19" y2="500.81">
</linearGradient>
</defs>
<g id="Layer_x0020_1">
<metadata id="CorelCorpID_0Corel-Layer"></metadata>
<path class="fil0" d="M1398.5 1706.65l-1090.36 0c-37.17,0 -67.4,-30.25 -67.4,-67.42l0 -1468.11c0,-37.16 30.24,-67.41 67.4,-67.41l169.63 -0.29 0 124c0,29.44 23.89,53.33 53.33,53.33l644.43 0c29.44,0 53.33,-23.89 53.33,-53.33l0 -123.83 169.64 0.12c37.17,0 67.42,30.24 67.42,67.41l0 1468.11c-0.02,37.18 -30.25,67.42 -67.42,67.42zm-793.32 -1091.4l-188.89 0c-11.04,0 -20,-8.96 -20,-20l0 -188.88c0,-11.04 8.96,-20 20,-20l188.89 0c11.04,0 20,8.96 20,20l0 188.88c0,11.04 -8.96,20 -20,20zm685.17 -163.89l-548.15 0c-26.33,0 -26.33,-40 0,-40l548.15 0c26.32,0 26.33,40 0,40zm0 138.87l-548.15 0c-26.33,0 -26.33,-40 0,-40l548.15 0c26.32,0 26.33,40 0,40zm-685.17 329.17l-188.89 0c-11.04,0 -20,-8.97 -20,-20l0 -188.88c0,-11.04 8.96,-20 20,-20l188.89 0c11.04,0 20,8.96 20,20l0 188.88c0,11.03 -8.96,20 -20,20zm685.17 -163.89l-548.15 0c-26.33,0 -26.33,-40 0,-40l548.15 0c26.32,0 26.33,40 0,40zm0 138.87l-548.15 0c-26.32,0 -26.32,-40 0,-40l548.15 0c26.32,0 26.33,40 0,40zm-685.17 329.14l-188.89 0c-11.04,0 -20,-8.97 -20,-20l0 -188.88c0,-11.04 8.96,-20 20,-20l188.89 0c11.04,0 20,8.97 20,20l0 188.88c0,11.05 -8.96,20 -20,20zm685.17 -163.87l-548.15 0c-26.32,0 -26.32,-40 0,-40l548.15 0c26.32,0 26.33,40 0,40zm0 138.87l-548.15 0c-26.32,0 -26.32,-40 0,-40l548.15 0c26.32,0 26.33,40 0,40zm-685.17 329.16l-188.89 0c-11.04,0 -20,-8.97 -20,-20l0 -188.88c0,-11.04 8.96,-20 20,-20l188.89 0c11.04,0 20,8.97 20,20l0 188.88c0,11.03 -8.96,20 -20,20zm685.17 -163.87l-548.15 0c-26.32,0 -26.32,-40 0,-40l548.15 0c26.32,0 26.33,40 0,40zm0 138.87l-548.15 0c-26.32,0 -26.32,-40 0,-40l548.15 0c26.32,0 26.33,40 0,40z" id="id_111"></path>
<path class="fil1" d="M1175.53 247.43l-644.43 0c-11.04,0 -20,-8.96 -20,-20l0 -207.41c0,-11.04 8.96,-20 20,-20l644.43 0c11.04,0 20,8.96 20,20l0 207.41c0.02,11.04 -8.95,20 -20,20z" id="id_112"></path>
<g id="_2615408077696">
<path class="fil2" d="M436.29 575.25l148.89 0 0 -148.89 -148.89 0 0 148.89zm124.4 -80.77c-16.62,13.35 -54.24,48.26 -67.08,48.26 -14.05,0 -23.5,-17.29 -35.93,-32.76 -16.42,-20.44 14.76,-45.5 31.18,-25.04l7.79 9.7c25.48,-20.46 50.14,-49.37 67.11,-28.26 6.92,8.61 5.54,21.19 -3.07,28.11z" id="id_113"></path>
<path class="fil3" d="M436.29 879.4l148.89 0 0 -148.88 -148.89 0 0 148.88zm124.41 -80.78c-16.58,13.34 -54.24,48.27 -67.11,48.27 -14.11,0 -23.4,-17.18 -35.92,-32.76 -16.43,-20.45 14.77,-45.48 31.18,-25.04l7.79 9.69c25.38,-20.4 50.13,-49.39 67.11,-28.29 6.92,8.61 5.54,21.2 -3.06,28.13z" id="id_114"></path>
<path class="fil3" d="M436.29 1183.54l148.89 0 0 -148.86 -148.89 0 0 148.86zm124.4 -80.77c-16.59,13.33 -54.28,48.3 -67.09,48.3 -14.11,0 -23.42,-17.2 -35.92,-32.77 -16.43,-20.44 14.77,-45.49 31.18,-25.06l7.79 9.71c25.44,-20.45 50.13,-49.4 67.09,-28.3 6.93,8.61 5.56,21.2 -3.06,28.11z" id="id_115"></path>
<path class="fil3" d="M436.29 1338.82l0 148.87 148.89 0 0 -148.87 -148.89 0zm124.42 68.1c-16.58,13.32 -54.27,48.27 -67.09,48.27 -14.03,0 -23.49,-17.3 -35.92,-32.74 -16.44,-20.44 14.73,-45.48 31.17,-25.06l7.81 9.7c25.47,-20.47 50.14,-49.37 67.11,-28.28 6.92,8.61 5.54,21.2 -3.07,28.11z" id="id_116"></path>
</g>
</g>
</svg>