<svg version="1.1" id="Layer_1" xmlns="http://www.w3.org/2000/svg" xmlns:xlink="http://www.w3.org/1999/xlink" x="0px" y="0px" viewBox="0 0 45.3 45.6" enable-background="new 0 0 45.3 45.6" xml:space="preserve">
<g>
<circle fill="#a82db3" stroke="#dbb4de" stroke-width="1.3469" stroke-linecap="round" stroke-linejoin="round" stroke-miterlimit="10" cx="22.1" cy="23.1" r="18.9" id="id_101"></circle>
<ellipse fill="none" stroke="#FFFFFF" stroke-width="1.3469" stroke-linecap="round" stroke-linejoin="round" stroke-miterlimit="10" cx="22.1" cy="23.1" rx="7" ry="18.9" id="id_102"></ellipse>
<path fill="none" stroke="#e0bde3" stroke-width="1.3469" stroke-linecap="round" stroke-linejoin="round" stroke-miterlimit="10" d="
		M22.1,13.4c-5.5,0-10.5-1.2-13.9-3c-3.1,3.4-4.9,7.8-4.9,12.7c0,4.9,1.9,9.3,4.9,12.7c3.4-1.8,8.4-3,13.9-3c5.5,0,10.5,1.2,13.9,3
		c3.1-3.4,4.9-7.8,4.9-12.7c0-4.9-1.9-9.3-4.9-12.7C32.5,12.3,27.6,13.4,22.1,13.4z" id="id_103"></path>
<polyline fill="none" stroke="#fffcff" stroke-width="1.3469" stroke-linecap="round" stroke-linejoin="round" stroke-miterlimit="10" points="
		18,20.4 20,25.8 22.1,21.1 24,25.8 26.1,20.4 	" id="id_104"></polyline>
<polyline fill="none" stroke="#fffcff" stroke-width="1.3469" stroke-linecap="round" stroke-linejoin="round" stroke-miterlimit="10" points="
		30.8,20.4 32.7,25.8 34.9,21.1 36.7,25.8 38.8,20.4 	" id="id_105"></polyline>
<polyline fill="none" stroke="#FFFFFF" stroke-width="1.3469" stroke-linecap="round" stroke-linejoin="round" stroke-miterlimit="10" points="
		5.1,20.4 7,25.8 9.2,21.1 11,25.8 13.1,20.4 	" id="id_106"></polyline>
</g>
</svg>